<?xml version="1.0" encoding="UTF-8" standalone="no"?>
<svg width="820px" height="497px" viewBox="0 0 820 497" version="1.1" xmlns="http://www.w3.org/2000/svg" xmlns:xlink="http://www.w3.org/1999/xlink">
    <!-- Generator: Sketch 39.1 (31720) - http://www.bohemiancoding.com/sketch -->
    <title>Wireframed-VMs</title>
    <desc>Empty</desc>
    <defs></defs>
    <g id="SVGs" stroke="none" stroke-width="1" fill="none" fill-rule="evenodd">
        <g id="Wireframed-VMs">
            <path d="M816.0003,16.0003 L684.0003,16.0003 L680.0003,16.0003 L680.0003,24.0003 L684.0003,24.0003 L816.0003,24.0003 L820.0003,24.0003 L820.0003,16.0003 L816.0003,16.0003 Z M600.0003,16.0003 L468.0003,16.0003 L464.0003,16.0003 L464.0003,24.0003 L468.0003,24.0003 L600.0003,24.0003 L604.0003,24.0003 L604.0003,16.0003 L600.0003,16.0003 Z M384.0003,16.0003 L252.0003,16.0003 L248.0003,16.0003 L248.0003,24.0003 L252.0003,24.0003 L384.0003,24.0003 L388.0003,24.0003 L388.0003,16.0003 L384.0003,16.0003 Z M168.0003,16.0003 L36.0003,16.0003 L32.0003,16.0003 L32.0003,24.0003 L36.0003,24.0003 L168.0003,24.0003 L172.0003,24.0003 L172.0003,16.0003 L168.0003,16.0003 Z M816.0003,88.0003 L684.0003,88.0003 L680.0003,88.0003 L680.0003,96.0003 L684.0003,96.0003 L816.0003,96.0003 L820.0003,96.0003 L820.0003,88.0003 L816.0003,88.0003 Z M600.0003,88.0003 L468.0003,88.0003 L464.0003,88.0003 L464.0003,96.0003 L468.0003,96.0003 L600.0003,96.0003 L604.0003,96.0003 L604.0003,88.0003 L600.0003,88.0003 Z M384.0003,88.0003 L252.0003,88.0003 L248.0003,88.0003 L248.0003,96.0003 L252.0003,96.0003 L384.0003,96.0003 L388.0003,96.0003 L388.0003,88.0003 L384.0003,88.0003 Z M168.0003,88.0003 L36.0003,88.0003 L32.0003,88.0003 L32.0003,96.0003 L36.0003,96.0003 L168.0003,96.0003 L172.0003,96.0003 L172.0003,88.0003 L168.0003,88.0003 Z M796.5713,144.0003 L23.4283,144.0003 L0.0003,144.0003 L0.0003,152.0003 L23.4283,152.0003 L796.5713,152.0003 L820.0003,152.0003 L820.0003,144.0003 L796.5713,144.0003 Z M816.0003,216.0003 L684.0003,216.0003 L680.0003,216.0003 L680.0003,224.0003 L684.0003,224.0003 L816.0003,224.0003 L820.0003,224.0003 L820.0003,216.0003 L816.0003,216.0003 Z M600.0003,216.0003 L468.0003,216.0003 L464.0003,216.0003 L464.0003,224.0003 L468.0003,224.0003 L600.0003,224.0003 L604.0003,224.0003 L604.0003,216.0003 L600.0003,216.0003 Z M384.0003,216.0003 L252.0003,216.0003 L248.0003,216.0003 L248.0003,224.0003 L252.0003,224.0003 L384.0003,224.0003 L388.0003,224.0003 L388.0003,216.0003 L384.0003,216.0003 Z M168.0003,216.0003 L36.0003,216.0003 L32.0003,216.0003 L32.0003,224.0003 L36.0003,224.0003 L168.0003,224.0003 L172.0003,224.0003 L172.0003,216.0003 L168.0003,216.0003 Z M816.0003,288.0003 L684.0003,288.0003 L680.0003,288.0003 L680.0003,296.0003 L684.0003,296.0003 L816.0003,296.0003 L820.0003,296.0003 L820.0003,288.0003 L816.0003,288.0003 Z M600.0003,288.0003 L468.0003,288.0003 L464.0003,288.0003 L464.0003,296.0003 L468.0003,296.0003 L600.0003,296.0003 L604.0003,296.0003 L604.0003,288.0003 L600.0003,288.0003 Z M384.0003,288.0003 L252.0003,288.0003 L248.0003,288.0003 L248.0003,296.0003 L252.0003,296.0003 L384.0003,296.0003 L388.0003,296.0003 L388.0003,288.0003 L384.0003,288.0003 Z M168.0003,288.0003 L36.0003,288.0003 L32.0003,288.0003 L32.0003,296.0003 L36.0003,296.0003 L168.0003,296.0003 L172.0003,296.0003 L172.0003,288.0003 L168.0003,288.0003 Z M796.5713,344.0003 L23.4283,344.0003 L0.0003,344.0003 L0.0003,352.0003 L23.4283,352.0003 L796.5713,352.0003 L820.0003,352.0003 L820.0003,344.0003 L796.5713,344.0003 Z M816.0003,416.0003 L684.0003,416.0003 L680.0003,416.0003 L680.0003,424.0003 L684.0003,424.0003 L816.0003,424.0003 L820.0003,424.0003 L820.0003,416.0003 L816.0003,416.0003 Z M600.0003,416.0003 L468.0003,416.0003 L464.0003,416.0003 L464.0003,424.0003 L468.0003,424.0003 L600.0003,424.0003 L604.0003,424.0003 L604.0003,416.0003 L600.0003,416.0003 Z M384.0003,416.0003 L252.0003,416.0003 L248.0003,416.0003 L248.0003,424.0003 L252.0003,424.0003 L384.0003,424.0003 L388.0003,424.0003 L388.0003,416.0003 L384.0003,416.0003 Z M168.0003,416.0003 L36.0003,416.0003 L32.0003,416.0003 L32.0003,424.0003 L36.0003,424.0003 L168.0003,424.0003 L172.0003,424.0003 L172.0003,416.0003 L168.0003,416.0003 Z M816.0003,488.0003 L684.0003,488.0003 L680.0003,488.0003 L680.0003,496.0003 L684.0003,496.0003 L816.0003,496.0003 L820.0003,496.0003 L820.0003,488.0003 L816.0003,488.0003 Z M600.0003,488.0003 L468.0003,488.0003 L464.0003,488.0003 L464.0003,496.0003 L468.0003,496.0003 L600.0003,496.0003 L604.0003,496.0003 L604.0003,488.0003 L600.0003,488.0003 Z M384.0003,488.0003 L252.0003,488.0003 L248.0003,488.0003 L248.0003,496.0003 L252.0003,496.0003 L384.0003,496.0003 L388.0003,496.0003 L388.0003,488.0003 L384.0003,488.0003 Z M168.0003,488.0003 L36.0003,488.0003 L32.0003,488.0003 L32.0003,496.0003 L36.0003,496.0003 L168.0003,496.0003 L172.0003,496.0003 L172.0003,488.0003 L168.0003,488.0003 Z" id="Silver" fill="#F0F0F0"></path>
            <path d="M648,484 C648,477.373 653.373,472 660,472 C666.627,472 672,477.373 672,484 C672,490.627 666.627,496 660,496 C653.373,496 648,490.627 648,484 L648,484 Z M770,480 L774,480 L774,472 L770,472 L684,472 L680,472 L680,480 L684,480 L770,480 Z M432,484 C432,477.373 437.373,472 444,472 C450.627,472 456,477.373 456,484 C456,490.627 450.627,496 444,496 C437.373,496 432,490.627 432,484 L432,484 Z M554,480 L558,480 L558,472 L554,472 L468,472 L464,472 L464,480 L468,480 L554,480 Z M216,484 C216,477.373 221.373,472 228,472 C234.627,472 240,477.373 240,484 C240,490.627 234.627,496 228,496 C221.373,496 216,490.627 216,484 L216,484 Z M338,480 L342,480 L342,472 L338,472 L252,472 L248,472 L248,480 L252,480 L338,480 Z M0,484 C0,477.373 5.373,472 12,472 C18.627,472 24,477.373 24,484 C24,490.627 18.627,496 12,496 C5.373,496 0,490.627 0,484 L0,484 Z M122,480 L126,480 L126,472 L122,472 L36,472 L32,472 L32,480 L36,480 L122,480 Z M648,412 C648,405.373 653.373,400 660,400 C666.627,400 672,405.373 672,412 C672,418.627 666.627,424 660,424 C653.373,424 648,418.627 648,412 L648,412 Z M770,408 L774,408 L774,400 L770,400 L684,400 L680,400 L680,408 L684,408 L770,408 Z M432,412 C432,405.373 437.373,400 444,400 C450.627,400 456,405.373 456,412 C456,418.627 450.627,424 444,424 C437.373,424 432,418.627 432,412 L432,412 Z M554,408 L558,408 L558,400 L554,400 L468,400 L464,400 L464,408 L468,408 L554,408 Z M216,412 C216,405.373 221.373,400 228,400 C234.627,400 240,405.373 240,412 C240,418.627 234.627,424 228,424 C221.373,424 216,418.627 216,412 L216,412 Z M338,408 L342,408 L342,400 L338,400 L252,400 L248,400 L248,408 L252,408 L338,408 Z M0,412 C0,405.373 5.373,400 12,400 C18.627,400 24,405.373 24,412 C24,418.627 18.627,424 12,424 C5.373,424 0,418.627 0,412 L0,412 Z M122,408 L126,408 L126,400 L122,400 L36,400 L32,400 L32,408 L36,408 L122,408 Z M648,284 C648,277.373 653.373,272 660,272 C666.627,272 672,277.373 672,284 C672,290.627 666.627,296 660,296 C653.373,296 648,290.627 648,284 L648,284 Z M770,280 L774,280 L774,272 L770,272 L684,272 L680,272 L680,280 L684,280 L770,280 Z M432,284 C432,277.373 437.373,272 444,272 C450.627,272 456,277.373 456,284 C456,290.627 450.627,296 444,296 C437.373,296 432,290.627 432,284 L432,284 Z M554,280 L558,280 L558,272 L554,272 L468,272 L464,272 L464,280 L468,280 L554,280 Z M216,284 C216,277.373 221.373,272 228,272 C234.627,272 240,277.373 240,284 C240,290.627 234.627,296 228,296 C221.373,296 216,290.627 216,284 L216,284 Z M338,280 L342,280 L342,272 L338,272 L252,272 L248,272 L248,280 L252,280 L338,280 Z M0,284 C0,277.373 5.373,272 12,272 C18.627,272 24,277.373 24,284 C24,290.627 18.627,296 12,296 C5.373,296 0,290.627 0,284 L0,284 Z M122,280 L126,280 L126,272 L122,272 L36,272 L32,272 L32,280 L36,280 L122,280 Z M648,212 C648,205.373 653.373,200 660,200 C666.627,200 672,205.373 672,212 C672,218.627 666.627,224 660,224 C653.373,224 648,218.627 648,212 L648,212 Z M770,208 L774,208 L774,200 L770,200 L684,200 L680,200 L680,208 L684,208 L770,208 Z M432,212 C432,205.373 437.373,200 444,200 C450.627,200 456,205.373 456,212 C456,218.627 450.627,224 444,224 C437.373,224 432,218.627 432,212 L432,212 Z M554,208 L558,208 L558,200 L554,200 L468,200 L464,200 L464,208 L468,208 L554,208 Z M216,212 C216,205.373 221.373,200 228,200 C234.627,200 240,205.373 240,212 C240,218.627 234.627,224 228,224 C221.373,224 216,218.627 216,212 L216,212 Z M338,208 L342,208 L342,200 L338,200 L252,200 L248,200 L248,208 L252,208 L338,208 Z M0,212 C0,205.373 5.373,200 12,200 C18.627,200 24,205.373 24,212 C24,218.627 18.627,224 12,224 C5.373,224 0,218.627 0,212 L0,212 Z M122,208 L126,208 L126,200 L122,200 L36,200 L32,200 L32,208 L36,208 L122,208 Z M648,84 C648,77.373 653.373,72 660,72 C666.627,72 672,77.373 672,84 C672,90.627 666.627,96 660,96 C653.373,96 648,90.627 648,84 L648,84 Z M770,80 L774,80 L774,72 L770,72 L684,72 L680,72 L680,80 L684,80 L770,80 Z M432,84 C432,77.373 437.373,72 444,72 C450.627,72 456,77.373 456,84 C456,90.627 450.627,96 444,96 C437.373,96 432,90.627 432,84 L432,84 Z M554,80 L558,80 L558,72 L554,72 L468,72 L464,72 L464,80 L468,80 L554,80 Z M216,84 C216,77.373 221.373,72 228,72 C234.627,72 240,77.373 240,84 C240,90.627 234.627,96 228,96 C221.373,96 216,90.627 216,84 L216,84 Z M338,80 L342,80 L342,72 L338,72 L252,72 L248,72 L248,80 L252,80 L338,80 Z M0,84 C0,77.373 5.373,72 12,72 C18.627,72 24,77.373 24,84 C24,90.627 18.627,96 12,96 C5.373,96 0,90.627 0,84 L0,84 Z M122,80 L126,80 L126,72 L122,72 L36,72 L32,72 L32,80 L36,80 L122,80 Z M648,12 C648,5.373 653.373,0 660,0 C666.627,0 672,5.373 672,12 C672,18.627 666.627,24 660,24 C653.373,24 648,18.627 648,12 L648,12 Z M770,8 L774,8 L774,0 L770,0 L684,0 L680,0 L680,8 L684,8 L770,8 Z M432,12 C432,5.373 437.373,0 444,0 C450.627,0 456,5.373 456,12 C456,18.627 450.627,24 444,24 C437.373,24 432,18.627 432,12 L432,12 Z M554,8 L558,8 L558,0 L554,0 L468,0 L464,0 L464,8 L468,8 L554,8 Z M216,12 C216,5.373 221.373,0 228,0 C234.627,0 240,5.373 240,12 C240,18.627 234.627,24 228,24 C221.373,24 216,18.627 216,12 L216,12 Z M338,8 L342,8 L342,0 L338,0 L252,0 L248,0 L248,8 L252,8 L338,8 Z M0,12 C0,5.373 5.373,0 12,0 C18.627,0 24,5.373 24,12 C24,18.627 18.627,24 12,24 C5.373,24 0,18.627 0,12 L0,12 Z M122,8 L126,8 L126,0 L122,0 L36,0 L32,0 L32,8 L36,8 L122,8 Z" id="Grey" fill="#CCCCCC"></path>
        </g>
    </g>
</svg>